<svg xmlns="http://www.w3.org/2000/svg" viewBox="0 0 96 96" role="img" aria-label="BETA">
  <defs>
    <radialGradient id="glow" cx="50%" cy="50%" r="55%">
      <stop offset="0%" stop-color="#0ea5e9" stop-opacity="0.28"/>
      <stop offset="100%" stop-color="#ffffff" stop-opacity="0"/>
    </radialGradient>
    <linearGradient id="mark" x1="18" y1="18" x2="78" y2="78" gradientUnits="userSpaceOnUse">
      <stop stop-color="#0891b2"/>
      <stop offset="1" stop-color="#1d4ed8"/>
    </linearGradient>
  </defs>
  <rect width="96" height="96" rx="24" fill="#f8fafc"/>
  <circle cx="48" cy="48" r="40" fill="url(#glow)"/>
  <path d="M27 21h28c13 0 22 7 22 18 0 6-3 12-9 15 7 3 11 9 11 17 0 13-10 22-25 22H27V21Zm17 16v12h9c5 0 8-2 8-6s-3-6-8-6h-9Zm0 27v13h11c5 0 8-3 8-7 0-4-3-6-9-6H44Z" fill="url(#mark)"/>
  <circle cx="35" cy="55" r="6" fill="#e2e8f0" stroke="#64748b" stroke-width="1.5"/>
</svg>
